# xmcd CD database file
#
# Track frame offsets:
#        150
#        2804
#        13706
#        24244
#        36187
#        42225
#        43944
#        49708
#        57038
#        63396
#        73805
#        83459
#        95093
#        100122
#        112011
#        125942
#        137681
#        151551
#        156744
#        164774
#
# Disc length: 2445 seconds
#
# Revision: 0
# Processed by: cddbd v1.5.2PL0 Copyright (c) Steve Scherf et al.
# Submitted via: CUERipper 2.1.5
#
DISCID=11098b14
DTITLE=Merle Haggard - Okie From Muskogee: Anniversary Edition
DYEAR=1969
DGENRE=Country
TTITLE0=Introduction By Carlton Haney
TTITLE1=Mama Tried
TTITLE2=No Hard Times
TTITLE3=Silver Wings
TTITLE4=Merle Recieves Key To Muskogee
TTITLE5=Merle's Introduction To Medley
TTITLE6=Swinging Doors
TTITLE7=I'm A Lonesome Fugitive
TTITLE8=Sing Me Back Home
TTITLE9=Branded Man
TTITLE10=In The Arms Of Love
TTITLE11=Workin' Man Blues
TTITLE12=Merle's Introduction To "Hobo Bill"
TTITLE13=Hobo Bill's Last Ride
TTITLE14=Billy Overcame His Size
TTITLE15=If I Had Left It Up To You
TTITLE16=White Line Fever
TTITLE17=Blue Rock
TTITLE18=Introduction "Okie From Muskogee"
TTITLE19=Okie From Muskogee
EXTD=
EXTT0=
EXTT1=
EXTT2=
EXTT3=
EXTT4=
EXTT5=
EXTT6=
EXTT7=
EXTT8=
EXTT9=
EXTT10=
EXTT11=
EXTT12=
EXTT13=
EXTT14=
EXTT15=
EXTT16=
EXTT17=
EXTT18=
EXTT19=
PLAYORDER=
